<svg width="71" height="71" viewBox="0 0 71 71" fill="none" xmlns="http://www.w3.org/2000/svg">
<circle cx="35.0816" cy="35.0816" r="35.0816" fill="#F4F0EC"/>
<path d="M46.0214 41.5504C45.0998 40.6219 42.8678 39.2669 41.7848 38.7208C40.3746 38.0105 40.2585 37.9525 39.15 38.7759C38.4107 39.3255 37.9191 39.8164 37.0538 39.6319C36.1885 39.4474 34.3081 38.4068 32.6617 36.7657C31.0152 35.1246 29.9143 33.1898 29.7291 32.3275C29.544 31.4651 30.0431 30.9794 30.5875 30.2383C31.3547 29.1938 31.2967 29.0197 30.6409 27.6095C30.1296 26.5127 28.735 24.3017 27.8029 23.3848C26.8059 22.4 26.8059 22.5741 26.1634 22.841C25.6404 23.0611 25.1386 23.3286 24.6644 23.6401C23.7358 24.257 23.2205 24.7694 22.8601 25.5395C22.4997 26.3096 22.3377 28.115 24.1989 31.4959C26.0601 34.8768 27.3659 36.6055 30.0686 39.3005C32.7714 41.9955 34.8496 43.4446 37.8878 45.1484C41.6461 47.2532 43.0877 46.8429 43.8602 46.4831C44.6326 46.1233 45.1474 45.6126 45.7655 44.6841C46.0779 44.2107 46.346 43.7095 46.5664 43.1869C46.8339 42.5468 47.008 42.5468 46.0214 41.5504Z" stroke="#CDA274" stroke-width="2" stroke-miterlimit="10"/>
</svg>
